<mxfile host="app.diagrams.net" modified="2023-12-17T06:36:27.049Z" agent="Mozilla/5.0 (Macintosh; Intel Mac OS X 10_15_7) AppleWebKit/605.1.15 (KHTML, like Gecko) Version/17.0 Safari/605.1.15" version="22.1.11" etag="yCZlmVIIBXU6S40nbekS" type="github">
  <diagram name="Страница — 1" id="Ht7iqdWoheNBvx0QvMiG">
    <mxGraphModel>
      <root>
        <mxCell id="0" />
        <mxCell id="1" parent="0" />
      </root>
    </mxGraphModel>
  </diagram>
</mxfile>
